<?xml version="1.0" standalone="no"?>
<!DOCTYPE svg PUBLIC "-//W3C//DTD SVG 20010904//EN" "http://www.w3.org/TR/2001/REC-SVG-20010904/DTD/svg10.dtd">
<!-- Created using Krita: https://krita.org -->
<svg xmlns="http://www.w3.org/2000/svg" 
    xmlns:xlink="http://www.w3.org/1999/xlink"
    xmlns:krita="http://krita.org/namespaces/svg/krita"
    xmlns:sodipodi="http://sodipodi.sourceforge.net/DTD/sodipodi-0.dtd"
    width="259.2pt"
    height="259.2pt"
    viewBox="0 0 259.2 259.2">
<defs/>
<path id="shape0" transform="translate(124.44, 77.6092021730218)" fill="#59932b" fill-rule="evenodd" stroke="#000000" stroke-width="1.92" stroke-linecap="square" stroke-linejoin="bevel" d="M5.16 2.40862C8.00979 2.40862 5.92682 -1.87093 5.92682 0.978853L10.32 137.677C10.32 140.527 8.00979 142.837 5.16 142.837C2.31021 142.837 -3.48987e-16 140.527 0 137.677L3.60868 3.01854C3.60868 0.168753 2.31021 2.40862 5.16 2.40862Z" sodipodi:nodetypes="ccccccc"/><ellipse id="shape1" transform="translate(117.145621335575, 79.0106814735016)" rx="12.72" ry="12.72" cx="12.72" cy="12.72" fill="#ffea00" fill-rule="evenodd" stroke="#000000" stroke-width="1.92" stroke-linecap="square" stroke-linejoin="bevel"/><path id="shape2" transform="translate(117.316161426291, 16.8180911939962)" fill="#ffffff" fill-rule="evenodd" stroke="#000000" stroke-width="1.92" stroke-linecap="square" stroke-linejoin="bevel" d="M3.65819 54.5917C1.64124 49.65 0.489067 46.0825 0.201674 43.889C-0.248923 40.4499 0.0555511 34.5798 1.1151 26.2786C2.5656 21.4776 3.69586 18.0868 4.50589 16.1063C5.14742 14.5377 6.24264 11.9086 8.23576 8.47698C9.24578 6.738 11.0542 3.91234 13.661 0C16.1481 3.4557 17.8972 5.94228 18.9084 7.45974C20.1083 9.2605 22.5853 12.058 24.6811 16.6149C25.464 18.317 26.994 21.238 27.5633 25.6005C28.0636 29.4346 28.0293 33.4558 27.5633 37.2987C27.292 39.5356 26.4118 43.2163 24.8506 48.3188C24.3831 49.8468 23.9954 52.5713 22.4771 55.9481C21.9132 57.2022 20.7236 59.1802 18.9084 61.8819L18.9084 62.5601L15.0173 61.7124L11.457 61.0342L7.89668 61.7124L3.65819 54.5917" sodipodi:nodetypes="cscsscsssssscccccc"/><path id="shape01" transform="matrix(0.0217566173535814 0.999763296786463 -0.999763296786463 0.0217566173535814 206.980396364814 77.2775556207547)" fill="#ffffff" stroke="#000000" stroke-width="1.92" stroke-linecap="square" stroke-linejoin="bevel" d="M3.85031 57.4588C1.72744 52.2576 0.514752 48.5026 0.212266 46.1939C-0.261996 42.5742 0.0584686 36.3958 1.17366 27.6587C2.70034 22.6055 3.88996 19.0367 4.74252 16.9521C5.41775 15.3012 6.57049 12.534 8.66828 8.92217C9.73136 7.09186 11.6347 4.11781 14.3785 0C16.9961 3.63719 18.8371 6.25436 19.9014 7.8515C21.1644 9.74685 23.7714 12.6913 25.9773 17.4875C26.8012 19.279 28.4116 22.3533 29.0109 26.945C29.5374 30.9804 29.5013 35.2128 29.0109 39.2575C28.7253 41.6119 27.7989 45.4859 26.1557 50.8563C25.6637 52.4647 25.2555 55.3323 23.6576 58.8863C23.064 60.2064 21.812 62.2882 19.9014 65.1318L19.9014 65.8456L15.806 64.9534L12.0587 64.2396L8.3114 64.9534L3.85031 57.4588" sodipodi:nodetypes="cscsscsssssscccccc"/><path id="shape02" transform="matrix(-0.999995022367823 0.0031551924801332 -0.0031551924801332 -0.999995022367823 141.908613346118 163.952369679171)" fill="#ffffff" stroke="#000000" stroke-width="1.92" stroke-linecap="square" stroke-linejoin="bevel" d="M3.54752 52.9402C1.59159 48.148 0.474272 44.6883 0.195573 42.5612C-0.241392 39.2261 0.0538706 33.5336 1.08136 25.4836C2.48798 20.8278 3.58405 17.5396 4.36957 15.619C4.99169 14.0979 6.05378 11.5483 7.98661 8.22053C8.96608 6.53416 10.7198 3.79398 13.2477 0C15.6596 3.35116 17.3558 5.76251 18.3363 7.23406C19.5 8.98035 21.902 11.6932 23.9344 16.1123C24.6936 17.7629 26.1773 20.5954 26.7294 24.826C27.2146 28.5441 27.1813 32.4436 26.7294 36.1703C26.4664 38.3395 25.6128 41.9089 24.0988 46.857C23.6455 48.3388 23.2694 50.9809 21.7971 54.2554C21.2502 55.4717 20.0967 57.3898 18.3363 60.0098L18.3363 60.6675L14.563 59.8454L11.1104 59.1877L7.65778 59.8454L3.54752 52.9402" sodipodi:nodetypes="cscsscsssssscccccc"/><path id="shape03" transform="matrix(0.0322257425801642 -0.999480615877649 0.999480615877649 0.0322257425801642 54.2488948190355 101.925124099462)" fill="#ffffff" stroke="#000000" stroke-width="1.92" stroke-linecap="square" stroke-linejoin="bevel" d="M3.75108 55.9779C1.68292 50.9108 0.501486 47.2525 0.206795 45.0034C-0.255244 41.4769 0.0569618 35.4578 1.14341 26.9459C2.63074 22.0229 3.78971 18.546 4.6203 16.5152C5.27812 14.9069 6.40115 12.2109 8.44488 8.69223C9.48056 6.90909 11.3349 4.01168 14.0079 0C16.5581 3.54345 18.3516 6.09317 19.3885 7.64915C20.619 9.49565 23.1587 12.3642 25.3078 17.0368C26.1105 18.7822 27.6794 21.7772 28.2632 26.2505C28.7762 30.182 28.741 34.3053 28.2632 38.2458C27.985 40.5395 27.0825 44.3136 25.4816 49.5456C25.0023 51.1125 24.6046 53.9062 23.0478 57.3686C22.4696 58.6547 21.2498 60.6829 19.3885 63.4532L19.3885 64.1486L15.3986 63.2794L11.748 62.584L8.09719 63.2794L3.75108 55.9779" sodipodi:nodetypes="cscsscsssssscccccc"/><path id="shape04" transform="matrix(0.821907076966675 0.569621590911108 -0.569621590911108 0.821907076966675 159.486030843381 34.0900057245403)" fill="#ffffff" stroke="#000000" stroke-width="1.92" stroke-linecap="square" stroke-linejoin="bevel" d="M3.01632 45.0131C1.35327 40.9384 0.403255 37.9968 0.166288 36.1882C-0.205247 33.3525 0.0458042 28.5124 0.919441 21.6678C2.11544 17.7091 3.04739 14.9133 3.71528 13.2802C4.24425 11.9869 5.14731 9.81909 6.79071 6.98961C7.62353 5.55575 9.11463 3.22588 11.2641 0C13.3147 2.84936 14.757 4.89965 15.5907 6.15085C16.5801 7.63566 18.6224 9.94232 20.3505 13.6997C20.996 15.1032 22.2576 17.5115 22.727 21.1086C23.1395 24.27 23.1113 27.5856 22.727 30.7542C22.5034 32.5987 21.7776 35.6336 20.4903 39.8407C20.1049 41.1007 19.7851 43.3472 18.5333 46.1314C18.0683 47.1655 17.0875 48.7964 15.5907 51.0241L15.5907 51.5833L12.3824 50.8844L9.44679 50.3251L6.51113 50.8844L3.01632 45.0131" sodipodi:nodetypes="cscsscsssssscccccc"/><path id="shape05" transform="matrix(0.668076122084163 -0.744092934451738 0.744092934451738 0.668076122084163 75.6637208744064 56.180289531041)" fill="#ffffff" stroke="#000000" stroke-width="1.92" stroke-linecap="square" stroke-linejoin="bevel" d="M3.01632 45.0131C1.35327 40.9384 0.403255 37.9968 0.166288 36.1882C-0.205247 33.3525 0.0458043 28.5124 0.919441 21.6678C2.11544 17.7091 3.04739 14.9133 3.71528 13.2802C4.24425 11.9869 5.14731 9.81909 6.79071 6.98961C7.62353 5.55575 9.11463 3.22588 11.2641 0C13.3147 2.84936 14.757 4.89965 15.5907 6.15085C16.5801 7.63566 18.6224 9.94232 20.3505 13.6997C20.996 15.1032 22.2576 17.5115 22.727 21.1086C23.1395 24.27 23.1113 27.5856 22.727 30.7542C22.5034 32.5987 21.7776 35.6336 20.4903 39.8407C20.1049 41.1007 19.7851 43.3472 18.5333 46.1314C18.0683 47.1655 17.0875 48.7964 15.5907 51.0241L15.5907 51.5833L12.3824 50.8844L9.44679 50.3251L6.51113 50.8844L3.01632 45.0131" sodipodi:nodetypes="cscsscsssssscccccc"/><path id="shape06" transform="matrix(-0.740881973120908 0.67163524468605 -0.67163524468605 -0.740881973120908 180.2615089959 132.438475047315)" fill="#ffffff" stroke="#000000" stroke-width="1.92" stroke-linecap="square" stroke-linejoin="bevel" d="M3.01632 45.0131C1.35327 40.9384 0.403255 37.9968 0.166288 36.1882C-0.205247 33.3525 0.0458043 28.5124 0.919441 21.6678C2.11544 17.7091 3.04739 14.9133 3.71528 13.2802C4.24425 11.9869 5.14731 9.81909 6.79071 6.98961C7.62353 5.55575 9.11463 3.22588 11.2641 0C13.3147 2.84936 14.757 4.89965 15.5907 6.15085C16.5801 7.63566 18.6224 9.94232 20.3505 13.6997C20.996 15.1032 22.2576 17.5115 22.727 21.1086C23.1395 24.27 23.1113 27.5856 22.727 30.7542C22.5034 32.5987 21.7776 35.6336 20.4903 39.8407C20.1049 41.1007 19.7851 43.3472 18.5333 46.1314C18.0683 47.1655 17.0875 48.7964 15.5907 51.0241L15.5907 51.5833L12.3824 50.8844L9.44679 50.3251L6.51113 50.8844L3.01632 45.0131" sodipodi:nodetypes="cscsscsssssscccccc"/><path id="shape07" transform="matrix(-0.713488985129152 -0.700666445678248 0.700666445678248 -0.713488985129152 92.0356909297532 143.603699556791)" fill="#ffffff" stroke="#000000" stroke-width="1.92" stroke-linecap="square" stroke-linejoin="bevel" d="M3.01632 45.0131C1.35327 40.9384 0.403255 37.9968 0.166288 36.1882C-0.205247 33.3525 0.0458043 28.5124 0.919441 21.6678C2.11544 17.7091 3.04739 14.9133 3.71528 13.2802C4.24425 11.9869 5.14731 9.81909 6.79071 6.98961C7.62353 5.55575 9.11463 3.22588 11.2641 0C13.3147 2.84936 14.757 4.89965 15.5907 6.15085C16.5801 7.63566 18.6224 9.94232 20.3505 13.6997C20.996 15.1032 22.2576 17.5115 22.727 21.1086C23.1395 24.27 23.1113 27.5856 22.727 30.7542C22.5034 32.5987 21.7776 35.6336 20.4903 39.8407C20.1049 41.1007 19.7851 43.3472 18.5333 46.1314C18.0683 47.1655 17.0875 48.7964 15.5907 51.0241L15.5907 51.5833L12.3824 50.8844L9.44679 50.3251L6.51113 50.8844L3.01632 45.0131" sodipodi:nodetypes="cscsscsssssscccccc"/>
</svg>
