<?xml version="1.0" standalone="no"?>
<!DOCTYPE svg PUBLIC "-//W3C//DTD SVG 20010904//EN" "http://www.w3.org/TR/2001/REC-SVG-20010904/DTD/svg10.dtd">
<!-- Created using Krita: https://krita.org -->
<svg xmlns="http://www.w3.org/2000/svg" 
    xmlns:xlink="http://www.w3.org/1999/xlink"
    xmlns:krita="http://krita.org/namespaces/svg/krita"
    xmlns:sodipodi="http://sodipodi.sourceforge.net/DTD/sodipodi-0.dtd"
    width="259.2pt"
    height="259.2pt"
    viewBox="0 0 259.2 259.2">
<defs/>
<path id="shape0" transform="translate(88.8796805732218, 92.9788278624331)" fill="#f4db5f" fill-rule="evenodd" stroke="#000000" stroke-width="2.4" stroke-linecap="square" stroke-linejoin="bevel" d="M57.5822 0.509093L52.1892 0L44.7184 0.110001L37.1096 0.57436L30.9301 1.35064L24.6246 2.24106L18.2348 2.40483L11.0945 3.13331L6.83085 4.1253L2.53197 8.24615L0.605447 13.0871L0 16.9478L0.076647 20.6243L1.23344 25.0224L4.7006 31.2754L8.42417 36.6212L11.2396 39.6346L14.2985 43.4096L17.296 45.902L20.7389 48.8866L26.4624 50.0142L35.9094 51.327L42.7438 51.9078L47.0379 52.7234L51.1396 52.5662L54.7489 52.6254L59.7936 52.8763L65.3545 52.4305L73.1916 52.2183L78.1998 50.7817L81.5086 49.6218L85.9401 47.6749L89.3928 46.0405L93.5596 42.1539L96.2194 39.5169L98.3079 33.8411L98.9908 27.3731L98.3705 20.4789L95.8171 16.1376L92.6996 13.454L87.2455 9.32959L78.5485 5.0439L71.4434 2.64351L65.1552 0.7654L57.5822 0.509093" sodipodi:nodetypes="ccccccccccccccccccccccccccccccccccccccccccccc"/><path id="shape1" transform="translate(123.376092516756, 62.1516071979987)" fill="#b8f4f5" fill-rule="evenodd" stroke="#000000" stroke-width="2.4" stroke-linecap="square" stroke-linejoin="bevel" d="M20.3656 31.0115L14.0993 29.2582L7.4485 25.7516L4.09723 21.6971L0.120507 13.2593L0 9.09526L0.72304 4.27367L3.49469 1.64372L7.4485 0.219163L15.9069 0L18.558 2.08205L21.4502 6.35572L23.7398 11.6156L24.8244 19.2863L25.3064 25.2037L25.3064 31.5594L20.3656 31.0115" sodipodi:nodetypes="ccccccccccccccccc"/><path id="shape01" transform="matrix(-0.991447302809944 -0.130507646331118 -0.130507646331118 0.991447302809944 191.420140116762 70.1727606837373)" fill="#b8f4f5" stroke="#000000" stroke-width="2.4" stroke-linecap="square" stroke-linejoin="bevel" d="M30.4618 27.9628L21.089 26.4562L11.1411 23.443L6.12843 19.959L0.180248 12.7086L0 9.13049L1.08149 4.98737L4.40128 0L11.1411 1.5034L20.7223 6.01896L27.7866 10.7766L33.8839 16.7466L37.852 22.9722L37.852 28.4336L30.4618 27.9628" sodipodi:nodetypes="ccccccccccccccc"/><path id="shape2" transform="translate(124.349485798052, 145.395620580946)" fill="none" stroke="#000000" stroke-width="2.4" stroke-linecap="square" stroke-linejoin="bevel" d="M2.34789 0L2.26447 9.47316L0 12.9541" sodipodi:nodetypes="ccc"/><path id="shape3" transform="translate(128.61819949595, 145.747404289646)" fill="none" stroke="#000000" stroke-width="2.4" stroke-linecap="square" stroke-linejoin="bevel" d="M2.8259 0L2.48513 10.929L0 15.3278" sodipodi:nodetypes="ccc"/><path id="shape4" transform="translate(159.925150955884, 145.664886612238)" fill="none" stroke="#000000" stroke-width="2.4" stroke-linecap="square" stroke-linejoin="bevel" d="M0 0L2.97833 9.38787L2.00058 12.2494" sodipodi:nodetypes="ccc"/><path id="shape5" transform="translate(166.127689306429, 144.522613604804)" fill="none" stroke="#000000" stroke-width="2.4" stroke-linecap="square" stroke-linejoin="bevel" d="M0 0L3.549 9.62683L1.65642 13.6857" sodipodi:nodetypes="ccc"/><path id="shape6" transform="translate(109.407376325583, 93.0982022149367)" fill="#000000" fill-rule="evenodd" stroke="#000000" stroke-width="2.4" stroke-linecap="square" stroke-linejoin="bevel" d="M7.5883 2.32788L7.24852 10.7526L7.02201 15.6301L6.00268 20.2858L6.00268 23.5005L4.98336 26.7152L3.28449 30.3733L2.26516 34.4748L1.69887 37.2461L1.3591 41.4585L0.566291 45.4491L0 47.2227L0 47.2227L8.15459 49.1072L12.7982 49.7723L20.1926 50.6591L17.555 47.4445L17.102 42.4561L17.3285 38.3546L20.1926 32.0361L20.1926 25.1633L20.1926 22.0595L22.6516 14.2998L22.3119 10.1983L21.9721 6.31854L22.8781 4.10151L25.5963 0.886812L21.519 0L17.555 0.221703L13.1379 0.443406L10.08 1.55192L7.5883 2.32788" sodipodi:nodetypes="cccccccccccccccccccccccccccccccc"/><path id="shape7" transform="translate(136.929107637297, 93.324718522029)" fill="#000000" fill-rule="evenodd" stroke="#000000" stroke-width="2.4" stroke-linecap="square" stroke-linejoin="bevel" d="M8.94739 1.22024L8.26785 6.54495L8.04133 10.4275L8.3811 16.196L8.04133 21.2988L6.68223 25.2923L5.20988 30.1733L4.8701 34.3887L3.39774 39.0478L2.60494 42.4867L1.24584 47.8114L0 49.6972L0.113258 51.0284L2.83145 51.5831L7.47504 51.8049L10.986 51.8049L14.497 51.2503L15.2899 47.5895L15.6296 41.8211L16.3092 35.53L16.6489 33.7231L18.2346 26.0689L19.4804 22.8519L20.8395 18.5255L19.7069 12.2024L20.7262 9.09637L21.519 5.43563L23.1047 2.99515L20.613 1.99676L17.7815 0.887451L14.2705 0.443725L10.3065 0L8.94739 1.22024" sodipodi:nodetypes="ccccccccccccccccccccccccccccccccc"/><path id="shape8" transform="translate(104.71458342224, 104.18177516195)" fill="#000000" fill-rule="evenodd" stroke="#000000" stroke-width="0.48" stroke-linecap="square" stroke-linejoin="bevel" d="M2.23779 0L1.59842 0.142082L0.248644 0.852493L0.0710411 1.52738L0 2.593L0 4.1559L0.532808 5.15048L0.923534 6.10953L1.84707 6.99755L2.7706 7.06859L3.37445 6.96203L3.8007 6.5713L4.29799 5.54121L4.61767 4.47559L4.68871 3.30341L4.61767 2.20227L4.44007 0.816973L3.94278 0.355206L3.51653 0.319685L2.34436 0.0710411" sodipodi:nodetypes="cccccccccccccccccccc"/><path id="shape9" transform="translate(165.608536438155, 101.346143013575)" fill="#000000" fill-rule="evenodd" stroke="#000000" stroke-width="2.4" stroke-linecap="square" stroke-linejoin="bevel" d="M6.28129 0L6.28129 3.29001L5.67732 7.16751L4.46938 12.925L3.9862 17.5075L2.29509 22.6775L0.724764 27.4834L0 31.7251L0.362382 36.0726L1.08715 39.7151L2.17429 40.6551L4.59017 40.0676L6.88526 39.7151L9.66352 38.6576L9.66352 35.0151L9.05955 33.3701L9.18034 28.7876L10.5091 27.4834L10.7507 25.0275L12.2002 21.0325L12.5626 19.505L12.5626 15.8625L12.6834 12.455L12.5626 8.81252L13.0457 7.28501L14.2537 5.05251L12.8042 2.58501L9.66352 0.822502L6.28129 0" sodipodi:nodetypes="ccccccccccccccccccccccccccccc"/><path id="shape10" transform="translate(90.5639245892226, 120.069208766977)" fill="#000000" fill-rule="evenodd" stroke="#000000" stroke-width="0.48" stroke-linecap="square" stroke-linejoin="bevel" d="M0.393937 1.32873L3.89696 3.01985L6.91681 3.50303L10.6614 3.01985L11.9902 1.81191L13.0773 0.60397L14.406 0L16.5803 0.483176L16.2179 2.89906L14.7684 4.95255L11.1446 6.64367L7.39999 6.88526L3.41379 6.40208L2.44743 5.31493L0 1.02522L0.393937 1.32873" sodipodi:nodetypes="cccccccccccccccc"/><path id="shape11" transform="translate(111.172535965091, 111.172535965091)" fill="#fecada" fill-rule="evenodd" stroke="#fecada" stroke-width="0.48" stroke-linecap="square" stroke-linejoin="bevel" d="M2.77469 0L3.79207 0.0924896L4.99444 0.739917L5.3644 1.94228L5.08693 3.79207L3.97705 4.25452L1.94228 4.25452L0.924896 4.06954L0.277469 3.42212L0 2.49722L0 1.7573L0.647427 0.924896L1.47983 0.462448L2.77469 0" sodipodi:nodetypes="cccccccccccccc"/>
</svg>
