<?xml version="1.0" standalone="no"?>
<!DOCTYPE svg PUBLIC "-//W3C//DTD SVG 20010904//EN" "http://www.w3.org/TR/2001/REC-SVG-20010904/DTD/svg10.dtd">
<!-- Created using Krita: https://krita.org -->
<svg xmlns="http://www.w3.org/2000/svg" 
    xmlns:xlink="http://www.w3.org/1999/xlink"
    xmlns:krita="http://krita.org/namespaces/svg/krita"
    xmlns:sodipodi="http://sodipodi.sourceforge.net/DTD/sodipodi-0.dtd"
    width="259.2pt"
    height="259.2pt"
    viewBox="0 0 259.2 259.2">
<defs/>
<path id="shape0" transform="translate(118.643188285924, 93.0602412499913)" fill="#59932b" fill-rule="evenodd" stroke="#000000" stroke-width="1.92" stroke-linecap="square" stroke-linejoin="bevel" d="M5.16 2.40862C8.00979 2.40862 5.92682 -1.87093 5.92682 0.978855L10.32 137.677C10.32 140.527 8.00979 142.837 5.16 142.837C2.31021 142.837 -3.48987e-16 140.527 0 137.677L3.60868 3.01854C3.60868 0.168755 2.31021 2.40862 5.16 2.40862Z" sodipodi:nodetypes="ccccccc"/><circle id="shape1" transform="translate(111.68032945857, 74.8809883757098)" r="13.0135197674413" cx="13.0135197674413" cy="13.0135197674413" fill="#ffea00" fill-rule="evenodd" stroke="#000000" stroke-width="1.92" stroke-linecap="square" stroke-linejoin="bevel"/><path id="shape2" transform="matrix(-0.9355471695039 -0.353201774674569 0.353201774674569 -0.9355471695039 127.357568644817 75.0551206872642)" fill="#1e74fd" fill-rule="evenodd" stroke="#000000" stroke-width="1.92" stroke-linecap="square" stroke-linejoin="bevel" d="M3.02604 32.8464C1.92213 27.5096 0.913452 16.9017 0 1.02256L4.15818 0L17.7294 12.3937C22.429 16.4876 26.1141 20.4052 29.0736 24.9103C33.681 36.362 31.8586 43.8227 23.6065 47.2924C13.131 51.6969 6.37153 47.3707 3.32806 34.3137" sodipodi:nodetypes="ccccccc"/><path id="shape01" transform="matrix(0.352318680587882 -0.935880092377677 0.935880092377677 0.352318680587882 136.127252288752 86.77057764435)" fill="#1e74fd" stroke="#000000" stroke-width="1.92" stroke-linecap="square" stroke-linejoin="bevel" d="M1.79833 34.3212C0.645174 28.9844 0.0457301 18.3404 0 2.38929L4.34698 0L17.1577 13.8685C22.0669 17.9624 25.9164 21.88 29.0079 26.3851C33.8208 37.8368 31.9172 45.2975 23.297 48.7672C12.3541 53.1717 5.29306 48.8455 2.11383 35.7885" sodipodi:nodetypes="ccccccc"/><path id="shape02" transform="matrix(-0.414470969072275 0.910062534003199 -0.910062534003199 -0.414470969072275 112.920900760088 81.4884124375721)" fill="#1e74fd" stroke="#000000" stroke-width="1.92" stroke-linecap="square" stroke-linejoin="bevel" d="M3.97333 32.8464C2.87576 27.5096 0.0435261 17.1053 0 1.15419L5.09898 0L18.5924 12.3937C23.265 16.4876 26.9291 20.4052 29.8716 24.9103C34.4525 36.362 32.6406 43.8227 24.4358 47.2924C14.0204 51.6969 7.29963 47.3707 4.27363 34.3137" sodipodi:nodetypes="ccccccc"/><path id="shape03" transform="matrix(0.333301970073632 0.942820129582027 -0.942820129582027 0.333301970073632 112.755500836791 90.6461369055018)" fill="#1e74fd" stroke="#000000" stroke-width="1.92" stroke-linecap="square" stroke-linejoin="bevel" d="M1.77272 33.6324C0.635987 28.2956 0.0450789 17.6516 0 1.70046L6.64914 0L17.6719 12.1129C22.5112 16.2068 25.5474 21.1912 28.5949 25.6963C33.3393 37.148 31.4627 44.6087 22.9652 48.0784C12.1782 52.4829 5.21769 48.1567 2.08373 35.0997" sodipodi:nodetypes="ccccccc"/><path id="shape04" transform="matrix(0.925515522530219 -0.378709674494398 0.378709674494398 0.925515522530219 131.151862545088 96.4330163153224)" fill="#1e74fd" stroke="#000000" stroke-width="1.92" stroke-linecap="square" stroke-linejoin="bevel" d="M5.53028 33.0531C4.25663 27.6827 0.0505083 18.4894 0 2.43782L6.8365 0L22.4945 12.4717C27.9166 16.5914 32.1684 20.5336 35.583 25.0671C40.8988 36.5909 38.7962 44.0985 29.2753 47.5901C17.189 52.0223 9.39016 47.6689 5.87875 34.5297" sodipodi:nodetypes="ccccccc"/><path id="shape05" transform="matrix(-0.916328055844194 0.400428388195494 -0.400428388195494 -0.916328055844194 120.75179407968 75.8525064883813)" fill="#1e74fd" stroke="#000000" stroke-width="1.92" stroke-linecap="square" stroke-linejoin="bevel" d="M3.43742 32.8464C2.33588 27.5096 0.0436833 16.3104 0 0.359214L4.56713 0L18.1093 12.3937C22.7988 16.4876 26.476 20.4052 29.4292 24.9103C34.0266 36.362 32.2082 43.8227 23.9738 47.2924C13.5208 51.6969 6.77573 47.3707 3.7388 34.3137" sodipodi:nodetypes="ccccccc"/><path id="shape06" transform="matrix(-0.497025538446009 -0.867735912667264 0.867735912667264 -0.497025538446009 133.585904084266 80.1555056065998)" fill="#1e74fd" stroke="#000000" stroke-width="1.92" stroke-linecap="square" stroke-linejoin="bevel" d="M1.72305 34.34C0.618168 29.0032 0.0438159 18.3592 0 2.408L3.50448 0L16.4395 13.8873C21.1432 17.9812 24.8316 21.8988 27.7937 26.4039C32.4052 37.8556 30.5812 45.3163 22.3218 48.786C11.837 53.1905 5.0715 48.8643 2.02535 35.8073" sodipodi:nodetypes="ccccccc"/><path id="shape07" transform="matrix(0.883465291725865 0.46849661505263 -0.46849661505263 0.883465291725865 119.932404526939 97.8454391687364)" fill="#1e74fd" stroke="#000000" stroke-width="1.92" stroke-linecap="square" stroke-linejoin="bevel" d="M4.89534 37.1177C3.55425 31.2586 0.053183 20.0422 0 2.52983L6.72804 0L22.758 14.6633C28.4672 19.1579 32.9442 23.4589 36.5395 28.4049C42.1368 40.9774 39.9228 49.1683 29.8977 52.9776C17.1715 57.8132 8.95964 53.0636 5.26227 38.7287" sodipodi:nodetypes="ccccccc"/>
</svg>
